<mxfile host="app.diagrams.net" modified="2022-01-10T11:44:42.834Z" agent="5.0 (Macintosh; Intel Mac OS X 10_15_7) AppleWebKit/537.36 (KHTML, like Gecko) Chrome/97.0.4692.71 Safari/537.36" etag="vsO1yw9Pf2aUcMksTqPk" version="16.1.2" type="github">
  <diagram id="qMNudfD0vzJZRYzWXN_J" name="第 1 页">
    <mxGraphModel dx="715" dy="422" grid="1" gridSize="10" guides="1" tooltips="1" connect="1" arrows="1" fold="1" page="1" pageScale="1" pageWidth="827" pageHeight="1169" math="0" shadow="0">
      <root>
        <mxCell id="0" />
        <mxCell id="1" parent="0" />
        <mxCell id="iEOz5mzsHdN-lvPFBywn-14" value="" style="rounded=1;whiteSpace=wrap;html=1;fontFamily=Comic Sans MS;sketch=1;shadow=1;glass=0;" vertex="1" parent="1">
          <mxGeometry x="140" y="170" width="610" height="260" as="geometry" />
        </mxCell>
        <mxCell id="iEOz5mzsHdN-lvPFBywn-5" style="edgeStyle=orthogonalEdgeStyle;rounded=0;orthogonalLoop=1;jettySize=auto;html=1;exitX=1;exitY=0.5;exitDx=0;exitDy=0;entryX=0;entryY=0.5;entryDx=0;entryDy=0;fontFamily=Comic Sans MS;sketch=1;shadow=1;" edge="1" parent="1" source="iEOz5mzsHdN-lvPFBywn-1" target="iEOz5mzsHdN-lvPFBywn-4">
          <mxGeometry relative="1" as="geometry">
            <Array as="points">
              <mxPoint x="320" y="220" />
              <mxPoint x="320" y="300" />
            </Array>
          </mxGeometry>
        </mxCell>
        <mxCell id="iEOz5mzsHdN-lvPFBywn-1" value="RelayerA" style="rounded=1;whiteSpace=wrap;html=1;fontFamily=Comic Sans MS;shadow=0;sketch=1;fillColor=#d5e8d4;strokeColor=#82b366;" vertex="1" parent="1">
          <mxGeometry x="170" y="190" width="120" height="60" as="geometry" />
        </mxCell>
        <mxCell id="iEOz5mzsHdN-lvPFBywn-8" style="edgeStyle=orthogonalEdgeStyle;rounded=0;orthogonalLoop=1;jettySize=auto;html=1;exitX=1;exitY=0.5;exitDx=0;exitDy=0;entryX=0;entryY=0.5;entryDx=0;entryDy=0;fontFamily=Comic Sans MS;sketch=1;shadow=1;" edge="1" parent="1" source="iEOz5mzsHdN-lvPFBywn-2" target="iEOz5mzsHdN-lvPFBywn-4">
          <mxGeometry relative="1" as="geometry" />
        </mxCell>
        <mxCell id="iEOz5mzsHdN-lvPFBywn-2" value="RelayerA" style="rounded=1;whiteSpace=wrap;html=1;fontFamily=Comic Sans MS;shadow=0;sketch=1;fillColor=#d5e8d4;strokeColor=#82b366;" vertex="1" parent="1">
          <mxGeometry x="170" y="270" width="120" height="60" as="geometry" />
        </mxCell>
        <mxCell id="iEOz5mzsHdN-lvPFBywn-10" style="edgeStyle=orthogonalEdgeStyle;rounded=0;orthogonalLoop=1;jettySize=auto;html=1;exitX=1;exitY=0.5;exitDx=0;exitDy=0;entryX=0;entryY=0.5;entryDx=0;entryDy=0;fontFamily=Comic Sans MS;sketch=1;shadow=1;" edge="1" parent="1" source="iEOz5mzsHdN-lvPFBywn-3" target="iEOz5mzsHdN-lvPFBywn-4">
          <mxGeometry relative="1" as="geometry">
            <Array as="points">
              <mxPoint x="320" y="380" />
              <mxPoint x="320" y="300" />
            </Array>
          </mxGeometry>
        </mxCell>
        <mxCell id="iEOz5mzsHdN-lvPFBywn-3" value="RelayerA" style="rounded=1;whiteSpace=wrap;html=1;fontFamily=Comic Sans MS;shadow=0;sketch=1;fillColor=#d5e8d4;strokeColor=#82b366;" vertex="1" parent="1">
          <mxGeometry x="170" y="350" width="120" height="60" as="geometry" />
        </mxCell>
        <mxCell id="iEOz5mzsHdN-lvPFBywn-12" style="edgeStyle=orthogonalEdgeStyle;rounded=0;orthogonalLoop=1;jettySize=auto;html=1;exitX=1;exitY=0.5;exitDx=0;exitDy=0;entryX=0;entryY=0.5;entryDx=0;entryDy=0;fontFamily=Comic Sans MS;sketch=1;shadow=1;" edge="1" parent="1" source="iEOz5mzsHdN-lvPFBywn-4" target="iEOz5mzsHdN-lvPFBywn-11">
          <mxGeometry relative="1" as="geometry">
            <Array as="points">
              <mxPoint x="570" y="300" />
              <mxPoint x="570" y="220" />
            </Array>
          </mxGeometry>
        </mxCell>
        <mxCell id="iEOz5mzsHdN-lvPFBywn-13" value="mint or burn" style="edgeLabel;html=1;align=center;verticalAlign=middle;resizable=0;points=[];fontFamily=Comic Sans MS;" vertex="1" connectable="0" parent="iEOz5mzsHdN-lvPFBywn-12">
          <mxGeometry x="-0.1879" y="1" relative="1" as="geometry">
            <mxPoint x="-16" y="14" as="offset" />
          </mxGeometry>
        </mxCell>
        <mxCell id="iEOz5mzsHdN-lvPFBywn-17" style="edgeStyle=orthogonalEdgeStyle;rounded=0;orthogonalLoop=1;jettySize=auto;html=1;exitX=1;exitY=0.5;exitDx=0;exitDy=0;entryX=0;entryY=0.5;entryDx=0;entryDy=0;fontFamily=Comic Sans MS;sketch=1;shadow=1;" edge="1" parent="1" source="iEOz5mzsHdN-lvPFBywn-4" target="iEOz5mzsHdN-lvPFBywn-15">
          <mxGeometry relative="1" as="geometry" />
        </mxCell>
        <mxCell id="iEOz5mzsHdN-lvPFBywn-18" style="edgeStyle=orthogonalEdgeStyle;rounded=0;orthogonalLoop=1;jettySize=auto;html=1;exitX=1;exitY=0.5;exitDx=0;exitDy=0;entryX=0;entryY=0.5;entryDx=0;entryDy=0;fontFamily=Comic Sans MS;sketch=1;shadow=1;" edge="1" parent="1" source="iEOz5mzsHdN-lvPFBywn-4" target="iEOz5mzsHdN-lvPFBywn-16">
          <mxGeometry relative="1" as="geometry">
            <Array as="points">
              <mxPoint x="570" y="300" />
              <mxPoint x="570" y="380" />
            </Array>
          </mxGeometry>
        </mxCell>
        <mxCell id="iEOz5mzsHdN-lvPFBywn-4" value="Bridge Contract" style="rounded=1;whiteSpace=wrap;html=1;fontFamily=Comic Sans MS;shadow=0;sketch=1;fillColor=#e1d5e7;strokeColor=#9673a6;" vertex="1" parent="1">
          <mxGeometry x="350" y="270" width="124" height="60" as="geometry" />
        </mxCell>
        <mxCell id="iEOz5mzsHdN-lvPFBywn-11" value="ERC20 Contract A" style="rounded=1;whiteSpace=wrap;html=1;fontFamily=Comic Sans MS;shadow=0;sketch=1;fillColor=#dae8fc;strokeColor=#6c8ebf;" vertex="1" parent="1">
          <mxGeometry x="600" y="190" width="124" height="60" as="geometry" />
        </mxCell>
        <mxCell id="iEOz5mzsHdN-lvPFBywn-15" value="ERC20 Contract B" style="rounded=1;whiteSpace=wrap;html=1;fontFamily=Comic Sans MS;shadow=0;sketch=1;fillColor=#dae8fc;strokeColor=#6c8ebf;" vertex="1" parent="1">
          <mxGeometry x="600" y="270" width="124" height="60" as="geometry" />
        </mxCell>
        <mxCell id="iEOz5mzsHdN-lvPFBywn-16" value="ERC20 Contract C" style="rounded=1;whiteSpace=wrap;html=1;fontFamily=Comic Sans MS;shadow=0;sketch=1;fillColor=#dae8fc;strokeColor=#6c8ebf;" vertex="1" parent="1">
          <mxGeometry x="600" y="350" width="124" height="60" as="geometry" />
        </mxCell>
      </root>
    </mxGraphModel>
  </diagram>
</mxfile>
